<svg width="54" height="40" viewBox="0 0 54 40" fill="none" xmlns="http://www.w3.org/2000/svg">
<rect width="1" height="40" fill="#CFD9E0"/>
<path d="M23.2811 20C23.2811 20.6962 23.5577 21.3639 24.05 21.8562C24.5423 22.3484 25.2099 22.625 25.9061 22.625C26.6023 22.625 27.27 22.3484 27.7623 21.8562C28.2546 21.3639 28.5311 20.6962 28.5311 20C28.5311 19.3038 28.2546 18.6361 27.7623 18.1438C27.27 17.6516 26.6023 17.375 25.9061 17.375C25.2099 17.375 24.5423 17.6516 24.05 18.1438C23.5577 18.6361 23.2811 19.3038 23.2811 20ZM36.0827 19.3953C33.8608 14.7148 30.5022 12.3594 25.9999 12.3594C21.4952 12.3594 18.139 14.7148 15.9171 19.3977C15.828 19.5864 15.7817 19.7925 15.7817 20.0012C15.7817 20.2099 15.828 20.416 15.9171 20.6047C18.139 25.2852 21.4975 27.6406 25.9999 27.6406C30.5046 27.6406 33.8608 25.2852 36.0827 20.6023C36.2632 20.2227 36.2632 19.782 36.0827 19.3953ZM25.9061 24.125C23.628 24.125 21.7811 22.2781 21.7811 20C21.7811 17.7219 23.628 15.875 25.9061 15.875C28.1843 15.875 30.0311 17.7219 30.0311 20C30.0311 22.2781 28.1843 24.125 25.9061 24.125Z" fill="#718096"/>
</svg>
