<svg width="69" height="62" viewBox="0 0 69 62" fill="none" xmlns="http://www.w3.org/2000/svg">
<path d="M42.2821 28.8907C42.2821 29.9003 41.8782 30.7484 41.0705 31.4349C40.3032 32.0811 39.3542 32.4042 38.2235 32.4042H12.5998C12.0748 32.4042 11.6508 32.5051 11.3277 32.707C11.0046 32.909 10.7623 33.1311 10.6008 33.3734C10.4393 33.5753 10.3585 33.757 10.3585 33.9186C10.3585 34.1205 10.4393 34.3426 10.6008 34.5849C10.7623 34.7868 11.0046 34.9887 11.3277 35.1907C11.6508 35.3522 12.0748 35.4532 12.5998 35.4935H32.4082C34.9524 35.5339 37.0523 36.0387 38.7081 37.0079C40.3638 37.9368 41.5349 39.0473 42.2215 40.3396C42.9484 41.5915 43.3118 42.8636 43.3118 44.1559C43.3118 45.4078 42.9484 46.6799 42.2215 47.9722C41.4946 49.2241 40.3032 50.3347 38.6475 51.3039C37.0321 52.2327 34.9524 52.6971 32.4082 52.6971C31.9639 52.7375 31.6409 52.7577 31.4389 52.7577H7.93546C6.8047 52.7577 5.83549 52.4346 5.02781 51.7885C4.26051 51.102 3.87686 50.2741 3.87686 49.3049C3.87686 48.2953 4.2807 47.4472 5.08838 46.7607C5.85568 46.1145 6.8047 45.7915 7.93546 45.7915H32.8928C33.4985 45.8318 33.9831 45.7511 34.3466 45.5492C34.7504 45.3472 35.0533 45.1251 35.2552 44.8828C35.4572 44.6405 35.5581 44.3982 35.5581 44.1559C35.5581 44.0348 35.4572 43.8328 35.2552 43.5501C35.0533 43.2271 34.7504 42.9848 34.3466 42.8232C33.9831 42.6213 33.4985 42.5002 32.8928 42.4598H13.0238C10.6816 42.4194 8.74314 41.9348 7.20854 41.006C5.67395 40.0367 4.58358 38.9262 3.93744 37.6743C3.2913 36.4224 2.96822 35.1705 2.96822 33.9186C2.96822 32.6667 3.2913 31.4349 3.93744 30.2234C4.62397 28.9715 5.71434 27.9013 7.20854 27.0129C8.74314 26.0841 10.6816 25.5793 13.0238 25.4985C13.4277 25.4581 13.7306 25.4379 13.9325 25.4379H38.2235C39.3542 25.4379 40.3032 25.7812 41.0705 26.4677C41.8782 27.1139 42.2821 27.9215 42.2821 28.8907Z" fill="#01426B"/>
<path d="M26.6066 28.8907C26.6066 29.9003 27.0105 30.7484 27.8181 31.4349C28.5854 32.0811 29.5345 32.4042 30.6652 32.4042H56.2889C56.8139 32.4042 57.2379 32.5051 57.561 32.707C57.884 32.909 58.1263 33.1311 58.2879 33.3734C58.4494 33.5753 58.5302 33.757 58.5302 33.9186C58.5302 34.1205 58.4494 34.3426 58.2879 34.5849C58.1263 34.7868 57.884 34.9887 57.561 35.1907C57.2379 35.3522 56.8139 35.4532 56.2889 35.4935H36.4805C33.9363 35.5339 31.8363 36.0387 30.1806 37.0079C28.5249 37.9368 27.3537 39.0473 26.6672 40.3396C25.9403 41.5915 25.5768 42.8636 25.5768 44.1559C25.5768 45.4078 25.9403 46.6799 26.6672 47.9722C27.3941 49.2241 28.5854 50.3347 30.2412 51.3039C31.8565 52.2327 33.9363 52.6971 36.4805 52.6971C36.9247 52.7375 37.2478 52.7577 37.4497 52.7577H60.9532C62.084 52.7577 63.0532 52.4346 63.8609 51.7885C64.6282 51.102 65.0118 50.2741 65.0118 49.3049C65.0118 48.2953 64.608 47.4472 63.8003 46.7607C63.033 46.1145 62.084 45.7915 60.9532 45.7915H35.9959C35.3901 45.8318 34.9055 45.7511 34.5421 45.5492C34.1382 45.3472 33.8354 45.1251 33.6334 44.8828C33.4315 44.6405 33.3306 44.3982 33.3306 44.1559C33.3306 44.0348 33.4315 43.8328 33.6334 43.5501C33.8354 43.2271 34.1382 42.9848 34.5421 42.8232C34.9055 42.6213 35.3901 42.5002 35.9959 42.4598H55.8648C58.2071 42.4194 60.1455 41.9348 61.6801 41.006C63.2147 40.0367 64.3051 38.9262 64.9512 37.6743C65.5974 36.4224 65.9204 35.1705 65.9204 33.9186C65.9204 32.6667 65.5974 31.4349 64.9512 30.2234C64.2647 28.9715 63.1743 27.9013 61.6801 27.0129C60.1455 26.0841 58.2071 25.5793 55.8648 25.4985C55.461 25.4581 55.1581 25.4379 54.9562 25.4379H30.6652C29.5345 25.4379 28.5854 25.7812 27.8181 26.4677C27.0105 27.1139 26.6066 27.9215 26.6066 28.8907Z" fill="#01426B"/>
</svg>
